# xmcd
#
# Track frame offsets:
# 150
# 15325
# 40766
# 55706
# 74215
# 100540
# 108400
# 126102
# 143209
# 155710
# 182421
#
# Disc length: 2814 seconds
#
#
# Revision: 0
# Processed by: cddbd v1.5.2PL0 Copyright (c) Steve Scherf et al.
# Submitted via: FreeRIP 2.943 
#
DISCID=8e0afc0b
DTITLE=the psychedelic riverchickens - on the fly
DYEAR=2008
DGENRE=Acoustic
TTITLE0=mind made
TTITLE1=machines
TTITLE2=all these objects
TTITLE3=soul sister
TTITLE4=dreaming
TTITLE5=simply
TTITLE6=broken
TTITLE7=one way ticket
TTITLE8=nothing new
TTITLE9=once had
TTITLE10=no way home
EXTD=from an unknown ranch and through distant waters came a fierce fowl.  nothing remained sacred, no one was safe from the hennion as it uttered it's battle squawk... on the fly
EXTT0=
EXTT1=
EXTT2=
EXTT3=
EXTT4=
EXTT5=
EXTT6=
EXTT7=
EXTT8=
EXTT9=
EXTT10=
PLAYORDER=
